<svg width="117" height="95" viewBox="0 0 117 95" fill="none" xmlns="http://www.w3.org/2000/svg">
<g clip-path="url(#clip0_12_163)">
<path d="M58.6294 94.4195C44.3118 94.4195 29.978 94.339 15.6603 94.4195C14.5414 94.5026 13.4217 94.2684 12.431 93.7439C11.4403 93.2195 10.6191 92.4263 10.0627 91.4564C4.11181 82.6935 0.671682 72.4824 0.111827 61.9199C-0.448027 51.3573 1.89354 40.8425 6.88507 31.505C11.8766 22.1674 19.3295 14.36 28.443 8.92135C37.5565 3.48271 47.9863 0.618389 58.6121 0.636068C69.2379 0.653746 79.6581 3.55277 88.7533 9.0217C97.8485 14.4906 105.275 22.3228 110.235 31.6769C115.195 41.031 117.502 51.5536 116.906 62.1142C116.311 72.6748 112.837 82.8744 106.856 91.6174C106.338 92.5366 105.566 93.288 104.631 93.7821C103.695 94.2761 102.637 94.4918 101.582 94.4035C87.2646 94.3551 72.947 94.4195 58.6294 94.4195ZM36.9346 15.7829C38.6777 18.4821 40.2448 21.29 41.6262 24.1893C42.1277 25.4615 41.4806 27.2008 41.3674 28.7307C39.9599 28.0865 38.1317 27.7966 37.2581 26.7177C35.3927 24.0915 33.6909 21.3541 32.162 18.5206L18.5239 32.0642C21.2703 33.4478 23.914 35.0246 26.435 36.7828C27.6483 37.7651 29.1367 40.0036 28.7485 41.002C27.8425 43.3532 25.7393 42.3548 24.0082 41.3563C21.5653 39.9392 19.1548 38.5703 15.6927 36.6378C13.897 43.0795 12.2468 48.9092 10.4025 55.5119C13.7832 55.3509 17.1706 55.3939 20.5462 55.6407C21.8889 55.8179 23.0376 57.2511 24.2833 58.1368C22.989 58.9743 21.7757 60.3431 20.3844 60.5042C17.0351 60.7362 13.6752 60.7738 10.3216 60.6169L15.175 79.7165C18.9283 77.6068 21.6462 75.8032 24.5745 74.5309C25.7393 74.0478 27.4057 74.708 28.8293 74.853C28.2307 76.2701 28.0043 78.0738 26.9689 79.0079C24.9099 80.5325 22.7169 81.8692 20.4167 83.0017H96.4214C94.1479 81.8796 91.9818 80.5536 89.9502 79.0401C89.029 77.8061 88.3435 76.4142 87.9279 74.9335C89.5457 74.8047 91.1635 74.1283 92.474 74.6597C95.756 76.2368 98.9528 77.9838 102.051 79.8936L106.743 60.5686C102.812 60.5686 100.126 60.5686 97.4568 60.5686C95.4346 60.5686 92.5225 61.2772 92.6034 57.9436C92.6843 54.61 95.6449 55.5924 97.6348 55.4958C100.288 55.367 102.941 55.4958 106.84 55.4958C104.883 48.7642 103.184 42.8701 101.34 36.4768C98.3931 38.3225 95.3529 40.0157 92.2312 41.5496C91.0664 42.0488 89.4163 41.3885 87.9765 41.2597C88.5589 39.8425 88.7691 37.9422 89.8207 37.1209C92.6229 35.1813 95.5403 33.4119 98.5569 31.8226L84.579 18.3274C82.9959 21.321 81.2459 24.2243 79.3373 27.0236C78.5932 28.0221 76.7812 28.1992 75.4546 28.7629C75.2442 27.3457 74.4677 25.7192 74.9369 24.5919C76.3862 21.5198 78.0066 18.5305 79.7903 15.638L60.959 10.8067C61.116 13.9732 61.0782 17.1463 60.8458 20.3082C60.6517 21.677 59.4707 23.8672 58.4676 24.0282C55.7821 24.4308 55.8468 22.0635 55.8306 20.1471V10.8067L36.9346 15.7829Z" fill="white" fill-opacity="0.81"/>
<path d="M46.9812 55.4635C47.1018 53.5174 47.7736 51.6451 48.9188 50.0634C50.0641 48.4816 51.6359 47.255 53.4524 46.5257C55.3724 45.4731 57.581 45.0614 59.7534 45.3513C61.9259 45.6412 63.9476 46.6173 65.5213 48.1361C66.3333 48.9909 67.3741 49.5968 68.5207 49.8821C69.6673 50.1674 70.872 50.1204 71.9926 49.7465C79.2242 48.0395 86.5528 46.6545 93.7682 45.0602C96.3891 44.4804 98.5246 44.8669 99.107 47.7335C99.6894 50.6 97.6995 51.7595 95.1757 52.2749C88.0412 53.7726 80.9228 55.3347 73.7721 56.7518C72.5939 56.8203 71.4685 57.262 70.5604 58.0124C69.6523 58.7628 69.009 59.7826 68.7246 60.9228C66.9773 66.4143 61.4606 68.9749 55.7821 67.8476C50.5404 66.7686 46.9974 62.34 46.9812 55.4635Z" fill="white" fill-opacity="0.81"/>
</g>
<defs>
<clipPath id="clip0_12_163">
<rect width="117" height="94" fill="white" transform="translate(0 0.5)"/>
</clipPath>
</defs>
</svg>
