<svg width="117" height="91" viewBox="0 0 117 91" fill="none" xmlns="http://www.w3.org/2000/svg">
<g clip-path="url(#clip0_12_167)">
<path d="M116.953 25.9291C114.018 25.9291 111.442 25.9291 108.85 25.9291C108.351 25.9291 107.492 25.9292 107.398 25.6245C105.322 20.1699 100.794 23.9942 97.6717 22.5772L97.016 23.3085C97.5781 24.3446 98.1557 25.3654 98.7022 26.3558C101.689 31.8555 103.368 37.9409 103.615 44.1605C103.863 50.38 102.672 56.5742 100.131 62.2833C97.5904 67.9923 93.765 73.0699 88.9388 77.1391C84.1126 81.2084 78.4095 84.1648 72.2526 85.7892C66.0956 87.4137 59.6428 87.6643 53.3731 86.5226C47.1033 85.3808 41.1774 82.876 36.0351 79.1939C30.8928 75.5119 26.666 70.7471 23.6684 65.2531C20.6708 59.7591 18.9793 53.6769 18.7194 47.4578C17.6421 25.9292 34.4255 6.41163 56.5328 4.7966C71.9736 3.71483 87.5236 4.20238 103.027 3.97383C106.415 3.97383 106.415 3.97385 107.227 0.423828H116.953V25.9291ZM61.2322 67.5086C65.6288 67.4844 69.9191 66.1876 73.5601 63.7825C77.201 61.3773 80.0288 57.972 81.6855 53.9976C83.3422 50.0232 83.7533 45.6585 82.8667 41.456C81.9801 37.2534 79.8358 33.4021 76.7051 30.3896C73.5744 27.3771 69.5981 25.3388 65.2798 24.5328C60.9614 23.7269 56.4951 24.1894 52.4463 25.862C48.3974 27.5345 44.9481 30.3418 42.5351 33.9285C40.122 37.5152 38.8537 41.7199 38.8907 46.0104C38.9729 51.7478 41.3694 57.2224 45.5604 61.2469C49.7515 65.2713 55.3993 67.5212 61.279 67.5086H61.2322Z" fill="white" fill-opacity="0.8"/>
<path d="M0 90.5V65.1622H8.91472C9.2738 65.1622 9.92957 65.2994 9.9764 65.467C10.96 70.1749 14.8787 67.5238 17.3923 68.3923C19.0097 68.8597 20.4561 69.769 21.5608 71.0129C26.3695 77.4578 31.3967 83.5675 39.7182 85.9444V86.9195H18.5945C17.1594 87.0033 15.7205 87.0033 14.2854 86.9195C11.6157 86.63 10.0388 87.4832 10.2418 90.5152L0 90.5Z" fill="white" fill-opacity="0.8"/>
<path d="M45.7915 46.0256C45.7152 44.0064 46.0554 41.9929 46.7918 40.1045C47.5283 38.2161 48.6461 36.4913 50.0788 35.0326C51.5114 33.5739 53.2298 32.4109 55.1319 31.6127C57.0339 30.8146 59.081 30.3976 61.1514 30.3863C63.2218 30.3751 65.2735 30.7699 67.1846 31.5474C69.0956 32.3248 70.8271 33.4691 72.2763 34.9122C73.7255 36.3553 74.8628 38.0678 75.6208 39.9481C76.3787 41.8284 76.7418 43.8382 76.6886 45.8581C76.5852 49.7755 74.9237 53.4999 72.0558 56.2428C69.1879 58.9857 65.3387 60.5317 61.3232 60.5535C57.3078 60.5752 53.4412 59.0711 50.5422 56.3595C47.6432 53.6479 45.9394 49.9417 45.7915 46.0256ZM65.5881 46.4675V44.8068C64.0268 43.9231 62.4656 42.2318 60.9044 42.369C59.3431 42.5061 57.4227 44.9439 57.6569 45.8885C57.9702 46.7202 58.4843 47.466 59.1556 48.0627C59.8268 48.6594 60.6355 49.0896 61.5132 49.3166C62.731 49.4842 64.2298 47.4578 65.5881 46.4675Z" fill="white" fill-opacity="0.8"/>
<path d="M65.5881 46.4676C64.2298 47.5036 62.731 49.5148 61.5444 49.3167C60.6603 49.1028 59.8422 48.6836 59.1599 48.0946C58.4775 47.5057 57.9512 46.7645 57.6257 45.9343C57.3915 44.9896 59.5928 42.5519 60.8731 42.4147C62.1533 42.2776 63.9956 43.9384 65.5568 44.8525L65.5881 46.4676Z" fill="black"/>
</g>
<defs>
<clipPath id="clip0_12_167">
<rect width="117" height="90" fill="white" transform="translate(0 0.5)"/>
</clipPath>
</defs>
</svg>
