<svg width="117" height="111" viewBox="0 0 117 111" fill="none" xmlns="http://www.w3.org/2000/svg">
<g clip-path="url(#clip0_12_173)">
<path opacity="0.8" d="M58.7876 42.8066L62.7078 48.335L70.4876 45.1052L68.7924 38.4421L75.9819 37.2346L76.9506 43.9268L85.351 44.4651L87.0462 37.9766L94.0995 40.0715L91.5869 46.3128L98.8673 50.6773L103.408 45.629L108.857 50.6191L103.453 54.9836L107.843 62.1268L114.23 59.7263L116.606 66.5059L109.72 68.2226C109.871 70.8267 110.022 73.3436 110.189 76.2824L117.061 77.3007L115.638 84.2257L108.917 82.4654C107.691 84.9968 106.526 87.3682 105.315 89.885L111.021 93.7112L106.481 99.3414L101.168 94.9479L94.4022 99.9379L97.6261 105.845L90.9209 108.754L88.5598 102.76C80.6286 102.76 80.5681 102.877 79.6296 110.485L72.652 110.049L73.5601 103.43L69.7611 102.222L65.523 100.767L62.1175 106.819L55.8512 103.08L59.7866 97.7557L53.3084 92.1837L48.1925 95.5589C46.9211 93.5076 45.6951 91.529 44.3934 89.4049L50.5537 86.3498C49.7818 83.7747 49.0401 81.3597 48.2076 78.581L41.2754 79.192L40.8365 72.3397H47.693C48.3136 69.561 48.8736 67.015 49.479 64.2509L42.9706 61.8795L45.9978 55.3182L52.1884 58.5043C53.9441 56.4239 55.6091 54.4598 57.5162 52.1757L52.9754 47.0693L58.7876 42.8066ZM58.3789 74.1001C58.427 78.037 59.6879 81.8719 62.0025 85.1203C64.317 88.3687 67.5813 90.8849 71.3829 92.3509C75.1846 93.817 79.353 94.1671 83.3615 93.357C87.3701 92.547 91.0389 90.6132 93.9046 87.7999C96.7702 84.9866 98.704 81.42 99.4618 77.5508C100.22 73.6815 99.7672 69.6832 98.1618 66.061C96.5565 62.4387 93.8703 59.3551 90.4425 57.1996C87.0147 55.0441 82.9991 53.9135 78.9031 53.9506C73.4084 54.0082 68.16 56.1507 64.3015 59.9112C60.4429 63.6718 58.2869 68.7456 58.3032 74.0273L58.3789 74.1001Z" fill="white"/>
<path opacity="0.8" d="M1.559 19.0056L7.02303 20.7804C8.53662 18.4963 9.95938 16.2559 11.8665 13.288L6.87167 10.2766L13.0774 5.18464L16.5586 9.54914L24.3838 6.42121L23.5968 0.921942L31.0436 0.470947V5.91206L39.2472 7.78876L41.9263 2.8569L48.3287 6.58127L44.9534 11.0476L50.478 17.2743L55.5788 14.8302L58.606 21.4497L53.3538 23.1954C53.1571 31.1825 53.1571 31.1825 59.4082 32.4628L57.7281 39.2714L52.3094 37.5838L47.6476 44.8579L52.2792 48.1895L46.2248 53.2669L42.895 48.786L35.0092 51.8993L35.8114 57.2386L28.5765 57.966L28.2889 52.4522L20.1155 50.5172L17.4365 55.4201L11.0038 51.6811L14.3942 47.2293L8.85447 40.9735L3.81423 43.505L0.787065 36.9291L6.23596 35.1105L5.58512 27.0653L0.0302734 26.0033L1.559 19.0056ZM29.6208 42.2829C33.2609 42.2753 36.7505 40.886 39.3302 38.4174C41.9098 35.9489 43.3705 32.6008 43.3944 29.1021C43.4065 25.6102 41.9749 22.2567 39.4145 19.7794C36.8542 17.302 33.3748 15.9038 29.7419 15.8922C26.109 15.8806 22.6201 17.2567 20.0427 19.7176C17.4653 22.1786 16.0106 25.5229 15.9986 29.0148C15.9725 30.7501 16.3056 32.4731 16.9785 34.0836C17.6514 35.694 18.6507 37.1599 19.9182 38.3958C21.1858 39.6318 22.6963 40.6132 24.362 41.283C26.0276 41.9528 27.8153 42.2976 29.6208 42.2974V42.2829Z" fill="white"/>
</g>
<defs>
<clipPath id="clip0_12_173">
<rect width="117" height="110" fill="white" transform="translate(0 0.5)"/>
</clipPath>
</defs>
</svg>
