<svg width="180" height="50" viewBox="0 0 180 50" fill="none" xmlns="http://www.w3.org/2000/svg">
<path d="M13.058 46.58H19.945C22.1223 46.58 24.134 46.5327 25.98 46.438C27.8733 46.296 29.5063 45.8463 30.879 45.089C32.2517 44.2843 33.3403 43.03 34.145 41.326C34.9497 39.622 35.352 37.1843 35.352 34.013H36.559V48H0.917V46.793H4.467V1.85H0.917V0.642996H36.488L36.559 12.287H35.352C34.9733 9.68366 34.287 7.69567 33.293 6.323C32.3463 4.903 31.163 3.88533 29.743 3.27C28.3703 2.60733 26.7847 2.25233 24.986 2.205C23.2347 2.11033 21.3413 2.063 19.306 2.063H13.058V23.008H14.904C16.3713 23.008 17.6493 22.9607 18.738 22.866C19.874 22.7713 20.8207 22.4637 21.578 21.943C22.3353 21.4223 22.9033 20.6177 23.282 19.529C23.6607 18.393 23.8737 16.831 23.921 14.843H25.057V32.735H23.921C23.8737 30.9363 23.6843 29.5163 23.353 28.475C23.069 27.3863 22.643 26.5817 22.075 26.061C21.507 25.493 20.8207 25.138 20.016 24.996C19.2113 24.8067 18.2883 24.712 17.247 24.712H13.058V46.58ZM45.5488 0.642996H63.0148V1.85H58.4708L68.3398 34.51C69.8545 30.0133 71.1325 26.1793 72.1738 23.008C73.2152 19.8367 74.0908 17.1623 74.8008 14.985C75.5108 12.8077 76.0552 11.08 76.4338 9.802C76.8598 8.47666 77.1675 7.43533 77.3568 6.678C77.5462 5.92066 77.6645 5.37633 77.7118 5.045C77.7592 4.66633 77.7828 4.35866 77.7828 4.122C77.7828 3.50666 77.5935 3.057 77.2148 2.773C76.8835 2.44166 76.4338 2.205 75.8658 2.063C75.3452 1.921 74.7772 1.85 74.1618 1.85C73.5938 1.85 73.0968 1.85 72.6708 1.85H72.4578V0.642996H85.5218V1.85H84.9538C83.8178 1.85 82.9422 1.89733 82.3268 1.992C81.7115 2.03933 81.2145 2.25233 80.8358 2.631C80.4572 2.96233 80.1258 3.50666 79.8418 4.264C79.5578 5.02133 79.2028 6.06266 78.7768 7.388L64.8608 49.846L49.3118 1.85H45.5488V0.642996ZM105.433 46.58H112.32C114.497 46.58 116.509 46.5327 118.355 46.438C120.248 46.296 121.881 45.8463 123.254 45.089C124.627 44.2843 125.715 43.03 126.52 41.326C127.325 39.622 127.727 37.1843 127.727 34.013H128.934V48H93.2919V46.793H96.8419V1.85H93.2919V0.642996H128.863L128.934 12.287H127.727C127.348 9.68366 126.662 7.69567 125.668 6.323C124.721 4.903 123.538 3.88533 122.118 3.27C120.745 2.60733 119.16 2.25233 117.361 2.205C115.61 2.11033 113.716 2.063 111.681 2.063H105.433V23.008H107.279C108.746 23.008 110.024 22.9607 111.113 22.866C112.249 22.7713 113.196 22.4637 113.953 21.943C114.71 21.4223 115.278 20.6177 115.657 19.529C116.036 18.393 116.249 16.831 116.296 14.843H117.432V32.735H116.296C116.249 30.9363 116.059 29.5163 115.728 28.475C115.444 27.3863 115.018 26.5817 114.45 26.061C113.882 25.493 113.196 25.138 112.391 24.996C111.586 24.8067 110.663 24.712 109.622 24.712H105.433V46.58ZM137.711 46.793H138.421C139.367 46.8403 140.409 46.8167 141.545 46.722C142.681 46.6273 143.698 46.2013 144.598 45.444C144.929 45.16 145.331 44.6867 145.805 44.024C146.278 43.314 146.917 42.249 147.722 40.829C148.574 39.3617 149.639 37.421 150.917 35.007C152.195 32.593 153.804 29.5163 155.745 25.777L144.385 1.85H140.622V0.642996H157.804V1.85H153.473L161.141 17.683C162.797 14.701 164.099 12.3343 165.046 10.583C165.992 8.83167 166.702 7.48266 167.176 6.536C167.696 5.542 168.028 4.832 168.17 4.406C168.312 3.98 168.383 3.625 168.383 3.341C168.383 2.631 168.146 2.205 167.673 2.063C167.199 1.921 166.773 1.85 166.395 1.85H163.129V0.642996H176.761V1.85H176.406C175.601 1.85 174.702 1.921 173.708 2.063C172.761 2.15766 171.956 2.489 171.294 3.057C171.01 3.341 170.678 3.71966 170.3 4.193C169.921 4.66633 169.4 5.471 168.738 6.607C168.075 7.69567 167.199 9.234 166.111 11.222C165.022 13.21 163.602 15.837 161.851 19.103L175.341 46.793H179.885V48H161.354V46.793H166.111L156.455 27.197L150.775 38.06C150.065 39.3853 149.497 40.474 149.071 41.326C148.645 42.1307 148.29 42.817 148.006 43.385C147.769 43.9057 147.603 44.308 147.509 44.592C147.414 44.8287 147.367 45.0417 147.367 45.231C147.367 45.657 147.485 45.9883 147.722 46.225C147.958 46.4143 148.242 46.5563 148.574 46.651C148.905 46.7457 149.213 46.793 149.497 46.793C149.828 46.793 150.065 46.793 150.207 46.793H153.047V48H137.711V46.793Z" fill="white"/>
</svg>
