<svg width="122" height="129" viewBox="0 0 122 129" fill="none" xmlns="http://www.w3.org/2000/svg">
<g clip-path="url(#clip0_12_178)">
<path d="M108.098 49.5728C101.886 56.4151 95.9126 63.0028 89.9395 69.4408C87.177 72.4352 84.519 72.3304 81.4876 69.6355C79.5613 67.8987 77.6649 66.117 75.8132 64.4102C78.531 58.0171 77.9336 54.9478 73.3195 50.9353C69.1234 47.2671 65.7187 47.0575 60.5072 50.3513C57.7596 47.8659 54.803 45.4105 52.1599 42.6856C49.92 40.3799 50.6666 37.6999 52.4884 35.5888C58.4615 28.8663 64.5241 22.2935 70.7958 15.3914L108.098 49.5728ZM80.9799 36.4572C79.4089 36.4988 77.9136 37.1431 76.8023 38.2574C75.691 39.3716 75.0484 40.8708 75.0069 42.446C75.0069 43.6305 75.3572 44.7884 76.0135 45.7733C76.6698 46.7581 77.6027 47.5257 78.6941 47.979C79.7856 48.4323 80.9866 48.5509 82.1452 48.3198C83.3039 48.0887 84.3682 47.5184 85.2035 46.6808C86.0389 45.8432 86.6077 44.7761 86.8382 43.6144C87.0687 42.4527 86.9504 41.2485 86.4983 40.1542C86.0462 39.0599 85.2807 38.1246 84.2984 37.4665C83.3161 36.8084 82.1613 36.4572 80.9799 36.4572Z" fill="white" fill-opacity="0.8"/>
<path d="M11.304 92.6477C13.4544 90.2821 15.3956 88.0363 17.4713 85.8952C20.4578 82.9008 22.9814 82.811 26.2965 85.6257C27.7151 86.8535 29.074 88.1411 31.6274 90.4468C32.1585 89.1796 32.835 87.9787 33.6433 86.8685C43.4392 76.0286 53.2848 65.2237 63.1802 54.4537C66.4206 50.9203 70.7212 51.4593 72.2443 55.9509C72.366 56.8823 72.2849 57.8291 72.0064 58.726C71.728 59.6229 71.259 60.4486 70.6316 61.1463C60.9104 72.061 50.9951 82.811 41.1545 93.6209C40.3182 94.5192 39.5268 95.4774 39.1834 95.8667C41.3337 99.475 45.1564 102.993 44.7682 105.958C44.2754 109.746 40.3631 113.07 37.7349 116.873C35.8982 115.211 34.7484 113.953 33.2551 112.935C32.3813 112.389 31.7216 111.558 31.3871 110.582C31.0526 109.606 31.0636 108.544 31.4184 107.575C32.6578 101.93 27.4015 95.7619 22.2049 97.4537C16.5006 99.2953 14.634 95.3576 11.304 92.6477Z" fill="white" fill-opacity="0.8"/>
<path d="M8.31751 95.8367C10.3036 97.6483 12.1552 99.1006 13.7082 100.837C14.2691 101.694 14.4778 102.735 14.2906 103.742C13.1706 111.468 18.5016 116.304 26.0127 114.432C27.2319 114.258 28.4714 114.558 29.4771 115.27C31.1886 116.631 32.8144 118.096 34.3452 119.657C31.8962 122.352 29.7758 124.942 27.3716 127.248C26.8892 127.793 26.2988 128.231 25.6381 128.534C24.9774 128.837 24.2611 128.998 23.5346 129.008C22.8081 129.018 22.0876 128.876 21.419 128.591C20.7504 128.306 20.1484 127.884 19.6514 127.353C13.6783 122.053 7.79984 116.673 2.01592 111.213C1.45611 110.787 0.989008 110.25 0.643139 109.637C0.297271 109.023 0.0799029 108.345 0.00441723 107.644C-0.0710685 106.943 -0.00310793 106.235 0.204109 105.561C0.411326 104.887 0.75344 104.263 1.20954 103.727C3.32998 101.047 5.79389 98.6365 8.31751 95.8367Z" fill="white" fill-opacity="0.8"/>
<path d="M82.0252 3.50343C85.2208 -0.688772 87.401 -0.988215 90.7758 2.00621C100.363 10.74 109.914 19.4937 119.432 28.2674C122.971 31.5313 122.896 33.4178 118.954 37.2507C106.709 26.1264 94.4194 14.8972 82.0252 3.50343Z" fill="white" fill-opacity="0.8"/>
<path d="M115.489 41.4279L111.696 45.6201L74.3647 11.4836L78.1278 7.24646L115.489 41.4279Z" fill="white" fill-opacity="0.8"/>
<path d="M80.9799 36.4572C82.1613 36.4572 83.3161 36.8084 84.2984 37.4665C85.2807 38.1245 86.0463 39.0599 86.4984 40.1542C86.9504 41.2485 87.0687 42.4527 86.8382 43.6144C86.6077 44.7761 86.0389 45.8432 85.2035 46.6808C84.3682 47.5183 83.3039 48.0887 82.1452 48.3198C80.9866 48.5509 79.7856 48.4323 78.6941 47.979C77.6027 47.5257 76.6699 46.7581 76.0135 45.7733C75.3572 44.7884 75.0069 43.6305 75.0069 42.446C75.0484 40.8708 75.691 39.3716 76.8023 38.2573C77.9136 37.1431 79.4089 36.4988 80.9799 36.4572Z" fill="black"/>
</g>
<defs>
<clipPath id="clip0_12_178">
<rect width="122" height="129" fill="white"/>
</clipPath>
</defs>
</svg>
